<svg width="18" height="19" viewBox="0 0 18 19" fill="none" xmlns="http://www.w3.org/2000/svg">
<g id="SVG">
<path id="Vector" d="M5.25 2.75H3C2.58579 2.75 2.25 3.08579 2.25 3.5V5.75C2.25 6.16421 2.58579 6.5 3 6.5H5.25C5.66421 6.5 6 6.16421 6 5.75V3.5C6 3.08579 5.66421 2.75 5.25 2.75Z" stroke="#297FFF" stroke-width="1.5" stroke-linecap="round" stroke-linejoin="round"/>
<path id="Vector_2" d="M15 2.75H12.75C12.3358 2.75 12 3.08579 12 3.5V5.75C12 6.16421 12.3358 6.5 12.75 6.5H15C15.4142 6.5 15.75 6.16421 15.75 5.75V3.5C15.75 3.08579 15.4142 2.75 15 2.75Z" stroke="#297FFF" stroke-width="1.5" stroke-linecap="round" stroke-linejoin="round"/>
<path id="Vector_3" d="M5.25 12.5H3C2.58579 12.5 2.25 12.8358 2.25 13.25V15.5C2.25 15.9142 2.58579 16.25 3 16.25H5.25C5.66421 16.25 6 15.9142 6 15.5V13.25C6 12.8358 5.66421 12.5 5.25 12.5Z" stroke="#297FFF" stroke-width="1.5" stroke-linecap="round" stroke-linejoin="round"/>
<path id="Vector_4" d="M15.75 12.5H13.5C13.1022 12.5 12.7206 12.658 12.4393 12.9393C12.158 13.2206 12 13.6022 12 14V16.25" stroke="#297FFF" stroke-width="1.5" stroke-linecap="round" stroke-linejoin="round"/>
<path id="Vector_5" d="M15.75 16.25V16.2575" stroke="#297FFF" stroke-width="1.5" stroke-linecap="round" stroke-linejoin="round"/>
<path id="Vector_6" d="M9 5.75V8C9 8.39782 8.84196 8.77936 8.56066 9.06066C8.27936 9.34196 7.89782 9.5 7.5 9.5H5.25" stroke="#297FFF" stroke-width="1.5" stroke-linecap="round" stroke-linejoin="round"/>
<path id="Vector_7" d="M2.25 9.5H2.2575" stroke="#297FFF" stroke-width="1.5" stroke-linecap="round" stroke-linejoin="round"/>
<path id="Vector_8" d="M9 2.75H9.0075" stroke="#297FFF" stroke-width="1.5" stroke-linecap="round" stroke-linejoin="round"/>
<path id="Vector_9" d="M9 12.5V12.5075" stroke="#297FFF" stroke-width="1.5" stroke-linecap="round" stroke-linejoin="round"/>
<path id="Vector_10" d="M12 9.5H12.75" stroke="#297FFF" stroke-width="1.5" stroke-linecap="round" stroke-linejoin="round"/>
<path id="Vector_11" d="M15.75 9.5V9.5075" stroke="#297FFF" stroke-width="1.5" stroke-linecap="round" stroke-linejoin="round"/>
<path id="Vector_12" d="M9 16.25V15.5" stroke="#297FFF" stroke-width="1.5" stroke-linecap="round" stroke-linejoin="round"/>
</g>
</svg>
