<svg width="18" height="19" viewBox="0 0 18 19" fill="none" xmlns="http://www.w3.org/2000/svg">
<g id="SVG">
<path id="Vector" d="M12 16.25V14.75C12 13.9544 11.6839 13.1913 11.1213 12.6287C10.5587 12.0661 9.79565 11.75 9 11.75H4.5C3.70435 11.75 2.94129 12.0661 2.37868 12.6287C1.81607 13.1913 1.5 13.9544 1.5 14.75V16.25" stroke="#B45309" stroke-width="1.5" stroke-linecap="round" stroke-linejoin="round"/>
<path id="Vector_2" d="M6.75 8.75C8.40685 8.75 9.75 7.40685 9.75 5.75C9.75 4.09315 8.40685 2.75 6.75 2.75C5.09315 2.75 3.75 4.09315 3.75 5.75C3.75 7.40685 5.09315 8.75 6.75 8.75Z" stroke="#B45309" stroke-width="1.5" stroke-linecap="round" stroke-linejoin="round"/>
<path id="Vector_3" d="M16.5 16.25V14.75C16.4995 14.0853 16.2783 13.4396 15.871 12.9142C15.4638 12.3889 14.8936 12.0137 14.25 11.8475" stroke="#B45309" stroke-width="1.5" stroke-linecap="round" stroke-linejoin="round"/>
<path id="Vector_4" d="M12 2.8475C12.6453 3.01273 13.2173 3.38803 13.6257 3.91424C14.0342 4.44044 14.2559 5.08763 14.2559 5.75375C14.2559 6.41988 14.0342 7.06706 13.6257 7.59327C13.2173 8.11948 12.6453 8.49478 12 8.66" stroke="#B45309" stroke-width="1.5" stroke-linecap="round" stroke-linejoin="round"/>
</g>
</svg>
